HIERARCHY
ROOT Hips
{
	OFFSET -0.001795 -0.223333 0.028219
	CHANNELS 6 Xposition Yposition Zposition Zrotation Yrotation Xrotation 
	JOINT LeftUpLeg
	{
		OFFSET 0.069520 -0.091406 -0.006815
		CHANNELS 3 Zrotation Yrotation Xrotation
		JOINT LeftLeg
		{
			OFFSET 0.034277 -0.375199 -0.004496
			CHANNELS 3 Zrotation Yrotation Xrotation
			JOINT LeftFoot
			{
				OFFSET -0.013596 -0.397961 -0.043693
				CHANNELS 3 Zrotation Yrotation Xrotation
				JOINT LeftToe
				{
					OFFSET 0.026358 -0.055791 0.119288
					CHANNELS 3 Zrotation Yrotation Xrotation
					End Site
					{
						OFFSET 0.000000 0.000000 0.000000
					}
				}
			}
		}
	}
	JOINT RightUpLeg
	{
		OFFSET -0.067670 -0.090522 -0.004320
		CHANNELS 3 Zrotation Yrotation Xrotation
		JOINT RightLeg
		{
			OFFSET -0.038290 -0.382569 -0.008850
			CHANNELS 3 Zrotation Yrotation Xrotation
			JOINT RightFoot
			{
				OFFSET 0.015774 -0.398415 -0.042312
				CHANNELS 3 Zrotation Yrotation Xrotation
				JOINT RightToe
				{
					OFFSET -0.025372 -0.048144 0.123348
					CHANNELS 3 Zrotation Yrotation Xrotation
					End Site
					{
						OFFSET 0.000000 0.000000 0.000000
					}
				}
			}
		}
	}
	JOINT Spine
	{
		OFFSET -0.002533 0.108963 -0.026696
		CHANNELS 3 Zrotation Yrotation Xrotation
		JOINT Spine1
		{
			OFFSET 0.005487 0.135180 0.001092
			CHANNELS 3 Zrotation Yrotation Xrotation
			JOINT Spine2
			{
				OFFSET 0.001457 0.052922 0.025425
				CHANNELS 3 Zrotation Yrotation Xrotation
				JOINT Neck
				{
					OFFSET -0.002778 0.213870 -0.042857
					CHANNELS 3 Zrotation Yrotation Xrotation
					JOINT Head
					{
						OFFSET 0.005152 0.064970 0.051349
						CHANNELS 3 Zrotation Yrotation Xrotation
						End Site
						{
							OFFSET 0.000000 0.000000 0.000000
						}
					}
				}
				JOINT LeftShoulder
				{
					OFFSET 0.078845 0.121749 -0.034090
					CHANNELS 3 Zrotation Yrotation Xrotation
					JOINT LeftArm
					{
						OFFSET 0.090977 0.030469 -0.008868
						CHANNELS 3 Zrotation Yrotation Xrotation
						JOINT LeftForeArm
						{
							OFFSET 0.259612 -0.012772 -0.027456
							CHANNELS 3 Zrotation Yrotation Xrotation
							JOINT LeftHand
							{
								OFFSET 0.249234 0.008986 -0.001171
								CHANNELS 3 Zrotation Yrotation Xrotation
								End Site
								{
									OFFSET 0.000000 0.000000 0.000000
								}
							}
						}
					}
				}
				JOINT RightShoulder
				{
					OFFSET -0.081759 0.118833 -0.038615
					CHANNELS 3 Zrotation Yrotation Xrotation
					JOINT RightArm
					{
						OFFSET -0.096012 0.032551 -0.009143
						CHANNELS 3 Zrotation Yrotation Xrotation
						JOINT RightForeArm
						{
							OFFSET -0.253742 -0.013329 -0.021401
							CHANNELS 3 Zrotation Yrotation Xrotation
							JOINT RightHand
							{
								OFFSET -0.255298 0.007772 -0.005559
								CHANNELS 3 Zrotation Yrotation Xrotation
								End Site
								{
									OFFSET 0.000000 0.000000 0.000000
								}
							}
						}
					}
				}
			}
		}
	}
}
MOTION
Frames: 16
Frame Time: 0.050000
-0.027669 0.904532 -0.115763 -3.682147 4.032907 -6.602428 -2.736548 1.987274 19.394344 6.057405 -3.275709 25.112863 0.793264 -0.311385 -3.836845 0.000000 0.000000 0.000000 11.118929 3.601500 -18.660419 -3.285924 1.820913 25.099804 -2.375527 -6.408723 1.475024 0.000000 0.000000 0.000000 3.914490 -0.045350 1.413469 4.242741 -1.861209 -2.599611 -5.161389 -4.138246 12.476914 4.985778 -2.005113 -17.935146 0.000000 0.000000 0.000000 -14.860940 -8.013613 2.942168 -55.020115 -20.681742 2.227216 -0.478454 -33.257529 1.738756 0.000000 0.000000 0.000000 11.374050 2.370469 0.061852 63.491512 -0.760902 -7.599916 9.253788 21.159686 2.300502 0.000000 0.000000 0.000000 
-0.033010 0.909877 -0.117245 -3.529196 3.650563 -7.040112 -2.059263 1.312821 13.194570 4.579040 -4.019293 36.190815 0.741650 0.897528 -1.371186 0.000000 0.000000 0.000000 11.453588 2.986177 -15.075553 -3.802705 2.045714 25.500376 -2.563995 -6.195659 -0.924743 0.000000 0.000000 0.000000 3.545362 -0.067465 1.805671 3.766038 -1.735952 -1.432440 -5.236946 -2.691990 11.202461 5.438085 -1.999417 -18.612523 0.000000 0.000000 0.000000 -15.009827 -7.694753 2.472339 -56.681161 -19.206960 1.764892 -0.776843 -29.713679 1.488816 0.000000 0.000000 0.000000 11.175850 2.885800 0.468524 64.281088 -0.072281 -7.101755 9.495774 22.721121 2.580177 0.000000 0.000000 0.000000 
-0.036818 0.917004 -0.121416 -3.420174 2.943605 -6.606174 -2.730244 0.524432 4.815426 2.935690 -4.389307 47.471438 1.712653 4.987755 3.548895 0.000000 0.000000 0.000000 12.181063 2.470883 -12.118360 -4.694635 2.348870 24.634756 -3.238856 -7.426864 -2.727680 0.000000 0.000000 0.000000 3.407663 -0.074221 1.818090 2.961313 -1.326848 -1.788755 -5.044907 -0.164080 11.688560 5.766081 -1.796532 -19.704774 0.000000 0.000000 0.000000 -17.276993 -8.618864 2.418747 -54.634929 -16.771873 0.485615 -0.705234 -26.958763 1.188387 0.000000 0.000000 0.000000 12.134119 3.376342 1.000607 63.555894 1.937816 -5.857182 9.233044 24.336156 2.843649 0.000000 0.000000 0.000000 
-0.039780 0.921658 -0.126688 -2.986434 2.491621 -6.997818 -2.892674 -0.310155 -2.581365 1.581563 -4.384211 56.388445 2.374882 7.055556 6.150638 0.000000 0.000000 0.000000 11.953808 1.538342 -7.582298 -4.764085 2.209810 21.879853 -3.356342 -6.927167 -5.386956 0.000000 0.000000 0.000000 2.621193 -0.164988 3.301484 1.355492 -0.542729 -2.341192 -3.354395 0.498611 11.714186 4.631526 -1.008467 -20.476358 0.000000 0.000000 0.000000 -20.364426 -8.126013 2.002472 -51.723612 -14.062616 -0.741672 -3.631545 -25.349651 1.743021 0.000000 0.000000 0.000000 12.111414 4.523434 1.565225 61.550865 3.610117 -4.858939 11.134550 26.754848 3.614528 0.000000 0.000000 0.000000 
-0.042161 0.926392 -0.131660 -2.931291 1.478058 -7.283249 -2.471421 -1.131153 -9.775662 0.224443 -3.308032 58.921230 4.406807 10.008315 3.289632 0.000000 0.000000 0.000000 12.342238 0.760206 -3.722124 -4.935846 2.044153 18.421941 -2.700040 -4.590163 -6.247265 0.000000 0.000000 0.000000 2.454866 -0.241898 4.601828 0.919784 -0.289363 -3.766445 -3.144767 2.793592 11.686883 4.779158 -0.892119 -20.226996 0.000000 0.000000 0.000000 -21.430033 -6.963123 0.772389 -52.149791 -10.847942 -1.999011 -4.197819 -22.466784 1.571058 0.000000 0.000000 0.000000 12.900776 5.377755 2.266047 60.599017 5.632010 -3.731354 9.475420 28.173846 3.535869 0.000000 0.000000 0.000000 
-0.044062 0.927721 -0.135038 -2.205978 -0.156074 -7.043118 -2.574199 -1.879706 -16.115627 -0.481065 -2.021969 56.477854 5.022669 9.938421 -2.069810 0.000000 0.000000 0.000000 11.664973 -0.083472 0.225467 -5.363766 1.967382 15.563421 -2.014290 -1.081192 -8.498744 0.000000 0.000000 0.000000 1.907516 -0.215070 4.371650 0.201436 -0.035167 -2.131713 -2.707162 4.653424 9.877919 4.248302 -0.635272 -18.592751 0.000000 0.000000 0.000000 -21.556528 -7.174258 0.552183 -50.602633 -7.571101 -3.073062 -7.014906 -18.914038 1.735919 0.000000 0.000000 0.000000 14.169822 6.499137 2.974411 58.142149 6.683657 -3.003973 7.299881 31.548502 3.467431 0.000000 0.000000 0.000000 
-0.045543 0.926910 -0.136727 -1.648108 -1.229866 -7.009348 -2.496188 -2.321270 -20.216150 -0.863993 -1.150239 49.066423 5.136168 10.121211 -2.323141 0.000000 0.000000 0.000000 11.340525 -0.802498 3.785464 -5.636248 1.930254 14.200092 -1.662034 0.592768 -9.011908 0.000000 0.000000 0.000000 1.341625 -0.202939 4.376555 -0.235811 0.161882 -2.224334 -2.684351 6.249139 9.592204 5.611892 -1.282054 -18.962071 0.000000 0.000000 0.000000 -21.750915 -7.321381 0.306202 -51.481973 -3.825805 -4.613671 -6.170619 -16.728495 1.391264 0.000000 0.000000 0.000000 14.768134 5.428583 2.642448 57.437718 8.938521 -1.874969 5.653142 31.921810 3.136100 0.000000 0.000000 0.000000 
-0.046810 0.923359 -0.136237 -1.235554 -0.729974 -7.812913 -3.864822 -2.688950 -20.880139 1.157178 -1.881593 37.999996 4.309241 8.048488 -3.328121 0.000000 0.000000 0.000000 11.277514 -1.679162 8.297691 -6.886512 1.995254 12.053390 -0.713037 3.765502 -9.177962 0.000000 0.000000 0.000000 0.678882 -0.243403 5.603349 -0.689856 0.404015 -3.608434 -2.397142 6.727890 10.161044 7.113521 -2.457115 -17.040766 0.000000 0.000000 0.000000 -21.423421 -8.048468 0.574882 -51.290970 -0.088850 -6.196301 -7.203987 -14.684817 1.346867 0.000000 0.000000 0.000000 16.118231 4.339234 2.288743 55.958644 10.313830 -1.381433 3.375472 34.315852 2.846392 0.000000 0.000000 0.000000 
-0.047744 0.917520 -0.134147 -1.587975 -1.811944 -8.640936 -3.787218 -2.481201 -19.493003 3.213969 -2.043767 27.433300 3.247004 5.243505 -4.793854 0.000000 0.000000 0.000000 12.292641 -2.616014 12.637969 -7.492865 2.026653 11.054841 -0.057736 6.431081 -9.538107 0.000000 0.000000 0.000000 0.967574 -0.244033 5.544728 -1.062458 0.542474 -1.894751 -2.560088 7.834561 9.179173 7.731034 -2.705622 -17.333515 0.000000 0.000000 0.000000 -21.551397 -7.629420 0.111225 -51.360301 2.178201 -7.035659 -5.895126 -12.200399 0.974489 0.000000 0.000000 0.000000 17.013529 4.093591 2.295008 55.345414 12.107875 -0.506344 1.245448 34.559009 2.268237 0.000000 0.000000 0.000000 
-0.048660 0.912465 -0.131402 -1.079374 -3.419349 -8.763306 -4.520264 -2.561213 -19.348793 4.039594 -1.952536 23.234583 3.648631 6.508131 -4.089793 0.000000 0.000000 0.000000 11.353038 -3.104636 15.987600 -8.004341 2.034993 10.130794 -0.255217 8.881611 -12.450056 0.000000 0.000000 0.000000 0.234263 -0.217902 5.434868 -2.048168 0.995698 -2.121619 -1.427974 7.587742 9.941443 7.695193 -2.723325 -18.125735 0.000000 0.000000 0.000000 -22.617079 -6.850847 0.018212 -50.176543 3.917581 -7.680447 -6.723867 -9.922898 0.879692 0.000000 0.000000 0.000000 18.320374 3.651411 1.829873 54.654703 13.840478 0.129320 1.332026 35.676757 2.325119 0.000000 0.000000 0.000000 
-0.049078 0.908667 -0.128809 -1.730111 -4.208143 -8.235053 -3.870540 -2.394534 -19.187457 4.645698 -1.932610 20.377030 2.773987 6.050268 0.845641 0.000000 0.000000 0.000000 11.725617 -3.613089 18.407055 -8.066390 2.045268 10.115442 -1.597185 5.290217 -13.742553 0.000000 0.000000 0.000000 -0.021252 -0.190121 4.843011 -0.597296 0.298094 -1.631754 -1.943244 7.989642 9.145431 8.147021 -3.049291 -17.669690 0.000000 0.000000 0.000000 -22.448097 -5.562843 -0.742816 -49.314051 6.743594 -8.579370 -8.268156 -8.735468 0.879578 0.000000 0.000000 0.000000 19.832500 3.454365 1.766341 53.033979 14.525393 0.366565 0.173068 35.921855 1.969374 0.000000 0.000000 0.000000 
-0.048822 0.907348 -0.127165 -1.240039 -6.528384 -7.173400 -2.910895 -2.214643 -19.844318 2.539948 -1.199628 21.031558 3.750263 8.253706 2.059483 0.000000 0.000000 0.000000 10.521517 -3.341071 18.504626 -7.570690 2.527558 14.659587 -1.021069 5.855074 -11.615460 0.000000 0.000000 0.000000 -0.921725 -0.126848 3.516965 -0.856284 0.404605 -0.892026 -0.743704 8.226143 7.695631 6.652829 -1.825390 -20.205702 0.000000 0.000000 0.000000 -24.428702 -2.391662 -2.508532 -48.076612 7.906843 -8.653175 -7.935164 -7.231762 0.705877 0.000000 0.000000 0.000000 16.987933 4.829855 2.107457 54.837455 14.134412 0.601117 0.584107 35.478758 1.932363 0.000000 0.000000 0.000000 
-0.047889 0.906754 -0.125156 -0.745801 -6.074726 -7.312856 -3.274748 -2.299559 -19.858969 1.768004 -1.009908 22.278354 3.969448 8.994344 3.698833 0.000000 0.000000 0.000000 9.352215 -3.321930 19.538262 -6.956409 2.996703 19.549494 -1.394698 2.326727 -9.163390 0.000000 0.000000 0.000000 -1.598922 -0.147176 4.898827 -0.597814 0.291011 -3.582522 -0.415543 8.140645 9.435259 7.797787 -2.051708 -23.364117 0.000000 0.000000 0.000000 -24.639848 -1.772965 -2.817611 -47.034433 8.442576 -8.777374 -7.932424 -8.109238 0.798109 0.000000 0.000000 0.000000 16.442032 3.775428 1.585210 55.306725 15.017405 0.879617 1.956282 35.622019 2.416156 0.000000 0.000000 0.000000 
-0.046358 0.908580 -0.122066 -0.604189 -6.827559 -7.431286 -2.512006 -1.966407 -18.052511 0.619519 -0.577700 21.022271 3.987413 9.011187 3.722220 0.000000 0.000000 0.000000 7.951542 -2.944412 18.981825 -5.996578 3.823858 27.650529 -0.123468 0.741844 -1.731338 0.000000 0.000000 0.000000 -1.685930 -0.144626 4.917866 -0.389981 0.190684 -4.142306 -0.439676 9.424887 9.749332 5.704602 -0.698073 -23.921665 0.000000 0.000000 0.000000 -24.355104 -1.478448 -3.219939 -46.609418 8.845160 -8.790462 -9.030615 -8.575865 0.912581 0.000000 0.000000 0.000000 15.780571 4.000846 1.865587 55.911362 14.284584 0.573550 4.307068 34.003220 3.006880 0.000000 0.000000 0.000000 
-0.044023 0.914217 -0.119510 0.618295 -6.506961 -7.598342 -4.391689 -2.068284 -15.977466 0.392055 -0.495285 19.758150 3.576974 8.521522 5.136314 0.000000 0.000000 0.000000 6.163551 -2.107819 14.881217 -4.028356 4.649621 39.270926 1.678168 -1.073384 9.063419 0.000000 0.000000 0.000000 -2.644671 -0.117848 4.914479 -0.553468 0.264695 -3.807536 -0.700430 9.127246 9.418620 5.961638 -0.756356 -24.700749 0.000000 0.000000 0.000000 -23.679908 -1.434789 -3.088842 -45.768808 7.994004 -8.295227 -9.405889 -9.612754 1.055180 0.000000 0.000000 0.000000 14.683300 4.426690 2.008938 57.985719 13.202053 0.239489 5.035443 32.603610 3.044766 0.000000 0.000000 0.000000 
-0.041488 0.920187 -0.119863 1.004340 -6.759188 -8.517470 -5.356716 -1.610415 -11.076699 -0.642985 -0.156175 18.080350 4.575183 10.103550 3.115477 0.000000 0.000000 0.000000 4.461208 -1.148330 8.877237 -1.163828 4.990508 51.980685 2.048039 -3.411836 16.310124 0.000000 0.000000 0.000000 -3.070010 -0.123853 6.625928 -0.726295 0.337692 -4.131376 -0.477856 8.868179 9.322545 6.135022 -0.855079 -25.159499 0.000000 0.000000 0.000000 -25.007823 -2.632657 -2.449320 -44.735135 5.892902 -7.340956 -9.853598 -11.671464 1.340111 0.000000 0.000000 0.000000 15.984866 4.921664 2.191416 57.695401 12.413274 -0.232201 7.614384 29.071356 3.215227 0.000000 0.000000 0.000000 
